<mxfile host="app.diagrams.net" modified="2024-04-10T07:04:39.656Z" agent="Mozilla/5.0 (Windows NT 10.0; Win64; x64) AppleWebKit/537.36 (KHTML, like Gecko) Chrome/123.0.0.0 Safari/537.36" etag="nFax9yMx-oNbDJjNolw7" version="24.2.3" type="github" pages="3">
  <diagram id="C5RBs43oDa-KdzZeNtuy" name="Page-1">
    <mxGraphModel dx="470" dy="736" grid="1" gridSize="10" guides="1" tooltips="1" connect="1" arrows="1" fold="1" page="1" pageScale="1" pageWidth="827" pageHeight="1169" math="0" shadow="0">
      <root>
        <mxCell id="WIyWlLk6GJQsqaUBKTNV-0" />
        <mxCell id="WIyWlLk6GJQsqaUBKTNV-1" parent="WIyWlLk6GJQsqaUBKTNV-0" />
        <mxCell id="27S2P3sXcbqq2EMv2Zbi-0" style="edgeStyle=orthogonalEdgeStyle;rounded=0;orthogonalLoop=1;jettySize=auto;html=1;entryX=0.5;entryY=0;entryDx=0;entryDy=0;" edge="1" parent="WIyWlLk6GJQsqaUBKTNV-1" source="27S2P3sXcbqq2EMv2Zbi-1" target="27S2P3sXcbqq2EMv2Zbi-2">
          <mxGeometry relative="1" as="geometry" />
        </mxCell>
        <mxCell id="27S2P3sXcbqq2EMv2Zbi-1" value="&lt;font data-sider-select-id=&quot;dee6ed8b-5d42-46d7-af98-2b2d3d5c65ee&quot; style=&quot;font-size: 16px;&quot;&gt;stmt&lt;/font&gt;" style="rounded=0;whiteSpace=wrap;html=1;" vertex="1" parent="WIyWlLk6GJQsqaUBKTNV-1">
          <mxGeometry x="275" y="220" width="90" height="40" as="geometry" />
        </mxCell>
        <mxCell id="27S2P3sXcbqq2EMv2Zbi-2" value="&lt;font data-sider-select-id=&quot;dee6ed8b-5d42-46d7-af98-2b2d3d5c65ee&quot; style=&quot;font-size: 16px;&quot;&gt;ASSIGN_OP&lt;/font&gt;" style="rounded=0;whiteSpace=wrap;html=1;" vertex="1" parent="WIyWlLk6GJQsqaUBKTNV-1">
          <mxGeometry x="260" y="310" width="120" height="40" as="geometry" />
        </mxCell>
        <mxCell id="27S2P3sXcbqq2EMv2Zbi-3" value="&lt;span data-sider-select-id=&quot;1621714e-7e79-4df6-b9df-c7def656f76a&quot; style=&quot;font-size: 16px;&quot;&gt;MUL&lt;/span&gt;" style="rounded=0;whiteSpace=wrap;html=1;" vertex="1" parent="WIyWlLk6GJQsqaUBKTNV-1">
          <mxGeometry x="255" y="490" width="105" height="40" as="geometry" />
        </mxCell>
        <mxCell id="27S2P3sXcbqq2EMv2Zbi-4" value="&lt;span data-sider-select-id=&quot;72811d2f-14c1-4fe5-9dea-efd255cf5ae1&quot; style=&quot;font-size: 16px;&quot;&gt;ADD&lt;/span&gt;" style="rounded=0;whiteSpace=wrap;html=1;" vertex="1" parent="WIyWlLk6GJQsqaUBKTNV-1">
          <mxGeometry x="270" y="400" width="90" height="40" as="geometry" />
        </mxCell>
        <mxCell id="27S2P3sXcbqq2EMv2Zbi-6" style="edgeStyle=orthogonalEdgeStyle;rounded=0;orthogonalLoop=1;jettySize=auto;html=1;entryX=0;entryY=0.5;entryDx=0;entryDy=0;" edge="1" parent="WIyWlLk6GJQsqaUBKTNV-1">
          <mxGeometry relative="1" as="geometry">
            <mxPoint x="195" y="605" as="sourcePoint" />
            <mxPoint x="260" y="605" as="targetPoint" />
          </mxGeometry>
        </mxCell>
        <mxCell id="27S2P3sXcbqq2EMv2Zbi-8" style="edgeStyle=orthogonalEdgeStyle;rounded=0;orthogonalLoop=1;jettySize=auto;html=1;entryX=0;entryY=0.5;entryDx=0;entryDy=0;" edge="1" parent="WIyWlLk6GJQsqaUBKTNV-1" target="27S2P3sXcbqq2EMv2Zbi-3">
          <mxGeometry relative="1" as="geometry">
            <mxPoint x="195" y="510" as="sourcePoint" />
          </mxGeometry>
        </mxCell>
        <mxCell id="27S2P3sXcbqq2EMv2Zbi-10" style="edgeStyle=orthogonalEdgeStyle;rounded=0;orthogonalLoop=1;jettySize=auto;html=1;entryX=0;entryY=0.5;entryDx=0;entryDy=0;" edge="1" parent="WIyWlLk6GJQsqaUBKTNV-1" target="27S2P3sXcbqq2EMv2Zbi-4">
          <mxGeometry relative="1" as="geometry">
            <mxPoint x="195" y="420" as="sourcePoint" />
          </mxGeometry>
        </mxCell>
        <mxCell id="27S2P3sXcbqq2EMv2Zbi-12" value="" style="endArrow=classic;html=1;rounded=0;exitX=0;exitY=1;exitDx=0;exitDy=0;entryX=0.96;entryY=0.15;entryDx=0;entryDy=0;entryPerimeter=0;" edge="1" parent="WIyWlLk6GJQsqaUBKTNV-1" source="27S2P3sXcbqq2EMv2Zbi-2" target="9n4zqiEyNXkeWeJWRtDV-1">
          <mxGeometry width="50" height="50" relative="1" as="geometry">
            <mxPoint x="245" y="320" as="sourcePoint" />
            <mxPoint x="195" y="400" as="targetPoint" />
          </mxGeometry>
        </mxCell>
        <mxCell id="27S2P3sXcbqq2EMv2Zbi-13" value="" style="endArrow=classic;html=1;rounded=0;exitX=0;exitY=1;exitDx=0;exitDy=0;entryX=1;entryY=0;entryDx=0;entryDy=0;" edge="1" parent="WIyWlLk6GJQsqaUBKTNV-1" source="27S2P3sXcbqq2EMv2Zbi-4">
          <mxGeometry width="50" height="50" relative="1" as="geometry">
            <mxPoint x="245" y="410" as="sourcePoint" />
            <mxPoint x="195" y="490" as="targetPoint" />
          </mxGeometry>
        </mxCell>
        <mxCell id="27S2P3sXcbqq2EMv2Zbi-14" value="" style="endArrow=classic;html=1;rounded=0;entryX=1;entryY=0;entryDx=0;entryDy=0;exitX=0;exitY=1;exitDx=0;exitDy=0;" edge="1" parent="WIyWlLk6GJQsqaUBKTNV-1" source="27S2P3sXcbqq2EMv2Zbi-3">
          <mxGeometry width="50" height="50" relative="1" as="geometry">
            <mxPoint x="250" y="510" as="sourcePoint" />
            <mxPoint x="195" y="585" as="targetPoint" />
          </mxGeometry>
        </mxCell>
        <mxCell id="9n4zqiEyNXkeWeJWRtDV-1" value="&lt;br data-sider-select-id=&quot;b2b47d29-bed7-42bd-8b9e-62a4c75ea1e3&quot;&gt;&lt;span style=&quot;color: rgb(0, 0, 0); font-family: Helvetica; font-size: 16px; font-style: normal; font-variant-ligatures: normal; font-variant-caps: normal; font-weight: 400; letter-spacing: normal; orphans: 2; text-align: center; text-indent: 0px; text-transform: none; widows: 2; word-spacing: 0px; -webkit-text-stroke-width: 0px; white-space: normal; background-color: rgb(251, 251, 251); text-decoration-thickness: initial; text-decoration-style: initial; text-decoration-color: initial; display: inline !important; float: none;&quot;&gt;sum&lt;/span&gt;&lt;div&gt;&lt;br/&gt;&lt;/div&gt;" style="strokeWidth=1;html=1;shape=mxgraph.flowchart.terminator;whiteSpace=wrap;" vertex="1" parent="WIyWlLk6GJQsqaUBKTNV-1">
          <mxGeometry x="100" y="390" width="100" height="60" as="geometry" />
        </mxCell>
        <mxCell id="9n4zqiEyNXkeWeJWRtDV-3" value="&lt;br data-sider-select-id=&quot;b2b47d29-bed7-42bd-8b9e-62a4c75ea1e3&quot;&gt;&lt;span style=&quot;color: rgb(0, 0, 0); font-family: Helvetica; font-size: 16px; font-style: normal; font-variant-ligatures: normal; font-variant-caps: normal; font-weight: 400; letter-spacing: normal; orphans: 2; text-align: center; text-indent: 0px; text-transform: none; widows: 2; word-spacing: 0px; -webkit-text-stroke-width: 0px; white-space: normal; background-color: rgb(251, 251, 251); text-decoration-thickness: initial; text-decoration-style: initial; text-decoration-color: initial; display: inline !important; float: none;&quot;&gt;sum&lt;/span&gt;&lt;div&gt;&lt;br/&gt;&lt;/div&gt;" style="strokeWidth=1;html=1;shape=mxgraph.flowchart.terminator;whiteSpace=wrap;" vertex="1" parent="WIyWlLk6GJQsqaUBKTNV-1">
          <mxGeometry x="95" y="480" width="100" height="60" as="geometry" />
        </mxCell>
        <mxCell id="9n4zqiEyNXkeWeJWRtDV-4" value="&lt;div data-sider-select-id=&quot;52762617-b685-4083-9c0e-56b713b56889&quot;&gt;&lt;span style=&quot;font-size: 16px;&quot;&gt;hour&lt;/span&gt;&lt;/div&gt;" style="strokeWidth=1;html=1;shape=mxgraph.flowchart.terminator;whiteSpace=wrap;" vertex="1" parent="WIyWlLk6GJQsqaUBKTNV-1">
          <mxGeometry x="100" y="570" width="100" height="60" as="geometry" />
        </mxCell>
        <mxCell id="9n4zqiEyNXkeWeJWRtDV-5" value="&lt;div data-sider-select-id=&quot;52762617-b685-4083-9c0e-56b713b56889&quot;&gt;&lt;span data-sider-select-id=&quot;156f6e99-f859-4ebe-a71d-e269e159782e&quot; style=&quot;font-size: 16px;&quot;&gt;ratio&lt;/span&gt;&lt;/div&gt;" style="strokeWidth=1;html=1;shape=mxgraph.flowchart.terminator;whiteSpace=wrap;" vertex="1" parent="WIyWlLk6GJQsqaUBKTNV-1">
          <mxGeometry x="260" y="570" width="100" height="60" as="geometry" />
        </mxCell>
      </root>
    </mxGraphModel>
  </diagram>
  <diagram id="fNfHDB7TTBPppFq7aZpA" name="페이지-2">
    <mxGraphModel dx="1175" dy="1840" grid="1" gridSize="10" guides="1" tooltips="1" connect="1" arrows="1" fold="1" page="1" pageScale="1" pageWidth="827" pageHeight="1169" math="0" shadow="0">
      <root>
        <mxCell id="0" />
        <mxCell id="1" parent="0" />
        <mxCell id="7d0kxQEAGNRu3mSkD8jf-1" style="edgeStyle=orthogonalEdgeStyle;rounded=0;orthogonalLoop=1;jettySize=auto;html=1;entryX=0.5;entryY=0;entryDx=0;entryDy=0;" edge="1" parent="1" source="7d0kxQEAGNRu3mSkD8jf-2" target="7d0kxQEAGNRu3mSkD8jf-4">
          <mxGeometry relative="1" as="geometry" />
        </mxCell>
        <mxCell id="7d0kxQEAGNRu3mSkD8jf-2" value="&lt;font data-sider-select-id=&quot;dee6ed8b-5d42-46d7-af98-2b2d3d5c65ee&quot; style=&quot;font-size: 16px;&quot;&gt;IF_ST&lt;/font&gt;" style="rounded=0;whiteSpace=wrap;html=1;" vertex="1" parent="1">
          <mxGeometry x="275" y="220" width="90" height="40" as="geometry" />
        </mxCell>
        <mxCell id="7d0kxQEAGNRu3mSkD8jf-4" value="&lt;font data-sider-select-id=&quot;dee6ed8b-5d42-46d7-af98-2b2d3d5c65ee&quot; style=&quot;font-size: 16px;&quot;&gt;GE&lt;/font&gt;" style="rounded=0;whiteSpace=wrap;html=1;" vertex="1" parent="1">
          <mxGeometry x="260" y="310" width="120" height="40" as="geometry" />
        </mxCell>
        <mxCell id="7d0kxQEAGNRu3mSkD8jf-6" value="&lt;span style=&quot;font-size: 16px;&quot;&gt;EXP_ST&lt;/span&gt;" style="rounded=0;whiteSpace=wrap;html=1;" vertex="1" parent="1">
          <mxGeometry x="685" y="310" width="105" height="40" as="geometry" />
        </mxCell>
        <mxCell id="7d0kxQEAGNRu3mSkD8jf-11" value="&lt;span data-sider-select-id=&quot;a35e91d1-0b74-42c9-a46e-b5261c70f3c6&quot; style=&quot;font-size: 16px;&quot;&gt;ASSIGN_OP&lt;/span&gt;" style="rounded=0;whiteSpace=wrap;html=1;" vertex="1" parent="1">
          <mxGeometry x="420" y="405" width="110" height="40" as="geometry" />
        </mxCell>
        <mxCell id="7d0kxQEAGNRu3mSkD8jf-12" style="edgeStyle=orthogonalEdgeStyle;rounded=0;orthogonalLoop=1;jettySize=auto;html=1;entryX=0;entryY=0.5;entryDx=0;entryDy=0;" edge="1" parent="1" source="7d0kxQEAGNRu3mSkD8jf-13" target="7d0kxQEAGNRu3mSkD8jf-6">
          <mxGeometry relative="1" as="geometry" />
        </mxCell>
        <mxCell id="KdiFoH9Uw0eDkTZSnD7i-1" style="edgeStyle=orthogonalEdgeStyle;rounded=0;orthogonalLoop=1;jettySize=auto;html=1;entryX=0.5;entryY=0;entryDx=0;entryDy=0;" edge="1" parent="1" source="7d0kxQEAGNRu3mSkD8jf-13" target="7d0kxQEAGNRu3mSkD8jf-11">
          <mxGeometry relative="1" as="geometry" />
        </mxCell>
        <mxCell id="7d0kxQEAGNRu3mSkD8jf-13" value="&lt;font data-sider-select-id=&quot;dee6ed8b-5d42-46d7-af98-2b2d3d5c65ee&quot; style=&quot;font-size: 16px;&quot;&gt;EXP_ST&lt;/font&gt;" style="rounded=0;whiteSpace=wrap;html=1;" vertex="1" parent="1">
          <mxGeometry x="430" y="310" width="90" height="40" as="geometry" />
        </mxCell>
        <mxCell id="7d0kxQEAGNRu3mSkD8jf-20" style="edgeStyle=orthogonalEdgeStyle;rounded=0;orthogonalLoop=1;jettySize=auto;html=1;entryX=0;entryY=0.5;entryDx=0;entryDy=0;" edge="1" parent="1">
          <mxGeometry relative="1" as="geometry">
            <mxPoint x="195" y="420" as="sourcePoint" />
            <mxPoint x="275" y="420" as="targetPoint" />
          </mxGeometry>
        </mxCell>
        <mxCell id="7d0kxQEAGNRu3mSkD8jf-17" value="" style="endArrow=classic;html=1;rounded=0;exitX=0;exitY=1;exitDx=0;exitDy=0;entryX=1;entryY=0;entryDx=0;entryDy=0;" edge="1" parent="1" source="7d0kxQEAGNRu3mSkD8jf-4">
          <mxGeometry width="50" height="50" relative="1" as="geometry">
            <mxPoint x="245" y="320" as="sourcePoint" />
            <mxPoint x="195" y="400" as="targetPoint" />
          </mxGeometry>
        </mxCell>
        <mxCell id="KdiFoH9Uw0eDkTZSnD7i-3" value="&lt;span data-sider-select-id=&quot;a35e91d1-0b74-42c9-a46e-b5261c70f3c6&quot; style=&quot;font-size: 16px;&quot;&gt;ASSIGN_OP&lt;/span&gt;" style="rounded=0;whiteSpace=wrap;html=1;" vertex="1" parent="1">
          <mxGeometry x="680" y="400" width="110" height="40" as="geometry" />
        </mxCell>
        <mxCell id="Btchepn9e1ZtWBrve7HN-1" value="&lt;div style=&quot;font-size: 16px;&quot;&gt;a&lt;/div&gt;" style="strokeWidth=1;html=1;shape=mxgraph.flowchart.terminator;whiteSpace=wrap;" vertex="1" parent="1">
          <mxGeometry x="100" y="390" width="100" height="60" as="geometry" />
        </mxCell>
        <mxCell id="Btchepn9e1ZtWBrve7HN-2" value="&lt;div style=&quot;font-size: 16px;&quot;&gt;b&lt;/div&gt;" style="strokeWidth=1;html=1;shape=mxgraph.flowchart.terminator;whiteSpace=wrap;" vertex="1" parent="1">
          <mxGeometry x="280" y="390" width="100" height="60" as="geometry" />
        </mxCell>
        <mxCell id="Btchepn9e1ZtWBrve7HN-8" value="&lt;div style=&quot;font-size: 16px;&quot;&gt;a&lt;/div&gt;" style="strokeWidth=1;html=1;shape=mxgraph.flowchart.terminator;whiteSpace=wrap;" vertex="1" parent="1">
          <mxGeometry x="700" y="490" width="100" height="60" as="geometry" />
        </mxCell>
        <mxCell id="Btchepn9e1ZtWBrve7HN-13" style="edgeStyle=orthogonalEdgeStyle;rounded=0;orthogonalLoop=1;jettySize=auto;html=1;" edge="1" parent="1" source="Btchepn9e1ZtWBrve7HN-9" target="Btchepn9e1ZtWBrve7HN-10">
          <mxGeometry relative="1" as="geometry" />
        </mxCell>
        <mxCell id="Btchepn9e1ZtWBrve7HN-9" value="&lt;div data-sider-select-id=&quot;af204300-070c-4a5b-835b-bccf7250c817&quot; style=&quot;font-size: 16px;&quot;&gt;c&lt;/div&gt;" style="strokeWidth=1;html=1;shape=mxgraph.flowchart.terminator;whiteSpace=wrap;" vertex="1" parent="1">
          <mxGeometry x="270" y="490" width="100" height="60" as="geometry" />
        </mxCell>
        <mxCell id="Btchepn9e1ZtWBrve7HN-10" value="&lt;div data-sider-select-id=&quot;61d3a874-7bee-412e-b526-edf2e81e6780&quot; style=&quot;font-size: 16px;&quot;&gt;b&lt;/div&gt;" style="strokeWidth=1;html=1;shape=mxgraph.flowchart.terminator;whiteSpace=wrap;" vertex="1" parent="1">
          <mxGeometry x="420" y="490" width="100" height="60" as="geometry" />
        </mxCell>
        <mxCell id="Btchepn9e1ZtWBrve7HN-11" value="&lt;div data-sider-select-id=&quot;c081013d-5fb5-40e5-8097-fedc40ae0598&quot; style=&quot;font-size: 16px;&quot;&gt;c&lt;/div&gt;" style="strokeWidth=1;html=1;shape=mxgraph.flowchart.terminator;whiteSpace=wrap;" vertex="1" parent="1">
          <mxGeometry x="550" y="490" width="100" height="60" as="geometry" />
        </mxCell>
        <mxCell id="Btchepn9e1ZtWBrve7HN-12" value="" style="endArrow=classic;html=1;rounded=0;exitX=0;exitY=1;exitDx=0;exitDy=0;entryX=1;entryY=0;entryDx=0;entryDy=0;" edge="1" parent="1">
          <mxGeometry width="50" height="50" relative="1" as="geometry">
            <mxPoint x="420" y="445" as="sourcePoint" />
            <mxPoint x="355" y="495" as="targetPoint" />
          </mxGeometry>
        </mxCell>
        <mxCell id="Btchepn9e1ZtWBrve7HN-14" value="" style="endArrow=classic;html=1;rounded=0;exitX=0;exitY=1;exitDx=0;exitDy=0;entryX=1;entryY=0;entryDx=0;entryDy=0;" edge="1" parent="1">
          <mxGeometry width="50" height="50" relative="1" as="geometry">
            <mxPoint x="680" y="440" as="sourcePoint" />
            <mxPoint x="615" y="490" as="targetPoint" />
          </mxGeometry>
        </mxCell>
        <mxCell id="Btchepn9e1ZtWBrve7HN-15" style="edgeStyle=orthogonalEdgeStyle;rounded=0;orthogonalLoop=1;jettySize=auto;html=1;entryX=0.522;entryY=-0.093;entryDx=0;entryDy=0;entryPerimeter=0;" edge="1" parent="1" source="7d0kxQEAGNRu3mSkD8jf-6" target="KdiFoH9Uw0eDkTZSnD7i-3">
          <mxGeometry relative="1" as="geometry" />
        </mxCell>
        <mxCell id="Btchepn9e1ZtWBrve7HN-16" style="edgeStyle=orthogonalEdgeStyle;rounded=0;orthogonalLoop=1;jettySize=auto;html=1;entryX=0;entryY=0.5;entryDx=0;entryDy=0;entryPerimeter=0;" edge="1" parent="1" source="Btchepn9e1ZtWBrve7HN-11" target="Btchepn9e1ZtWBrve7HN-8">
          <mxGeometry relative="1" as="geometry" />
        </mxCell>
      </root>
    </mxGraphModel>
  </diagram>
  <diagram id="L2gQk50iK5lnUn65gICv" name="페이지-3">
    <mxGraphModel dx="1841" dy="1051" grid="1" gridSize="10" guides="1" tooltips="1" connect="1" arrows="1" fold="1" page="1" pageScale="1" pageWidth="827" pageHeight="1169" math="0" shadow="0">
      <root>
        <mxCell id="0" />
        <mxCell id="1" parent="0" />
        <mxCell id="ULithzEe3QTlvXvxK5Zr-26" style="edgeStyle=orthogonalEdgeStyle;rounded=0;orthogonalLoop=1;jettySize=auto;html=1;entryX=0.5;entryY=0;entryDx=0;entryDy=0;" edge="1" parent="1" source="ULithzEe3QTlvXvxK5Zr-8" target="ULithzEe3QTlvXvxK5Zr-24">
          <mxGeometry relative="1" as="geometry" />
        </mxCell>
        <mxCell id="ULithzEe3QTlvXvxK5Zr-44" style="edgeStyle=orthogonalEdgeStyle;rounded=0;orthogonalLoop=1;jettySize=auto;html=1;entryX=0;entryY=0.5;entryDx=0;entryDy=0;" edge="1" parent="1" source="ULithzEe3QTlvXvxK5Zr-8" target="ULithzEe3QTlvXvxK5Zr-23">
          <mxGeometry relative="1" as="geometry" />
        </mxCell>
        <mxCell id="ULithzEe3QTlvXvxK5Zr-8" value="&lt;font data-sider-select-id=&quot;dee6ed8b-5d42-46d7-af98-2b2d3d5c65ee&quot; style=&quot;font-size: 16px;&quot;&gt;EXP_ST&lt;/font&gt;" style="rounded=0;whiteSpace=wrap;html=1;" vertex="1" parent="1">
          <mxGeometry x="-120" y="550" width="90" height="40" as="geometry" />
        </mxCell>
        <mxCell id="ULithzEe3QTlvXvxK5Zr-27" style="edgeStyle=orthogonalEdgeStyle;rounded=0;orthogonalLoop=1;jettySize=auto;html=1;" edge="1" parent="1" source="ULithzEe3QTlvXvxK5Zr-23" target="ULithzEe3QTlvXvxK5Zr-25">
          <mxGeometry relative="1" as="geometry" />
        </mxCell>
        <mxCell id="ULithzEe3QTlvXvxK5Zr-63" style="edgeStyle=orthogonalEdgeStyle;rounded=0;orthogonalLoop=1;jettySize=auto;html=1;entryX=1;entryY=0.5;entryDx=0;entryDy=0;" edge="1" parent="1" source="ULithzEe3QTlvXvxK5Zr-23" target="ULithzEe3QTlvXvxK5Zr-38">
          <mxGeometry relative="1" as="geometry">
            <Array as="points">
              <mxPoint x="360" y="570" />
              <mxPoint x="360" y="859" />
            </Array>
          </mxGeometry>
        </mxCell>
        <mxCell id="ULithzEe3QTlvXvxK5Zr-23" value="&lt;font data-sider-select-id=&quot;dee6ed8b-5d42-46d7-af98-2b2d3d5c65ee&quot; style=&quot;font-size: 16px;&quot;&gt;EXP_ST&lt;/font&gt;" style="rounded=0;whiteSpace=wrap;html=1;" vertex="1" parent="1">
          <mxGeometry x="110" y="550" width="90" height="40" as="geometry" />
        </mxCell>
        <mxCell id="ULithzEe3QTlvXvxK5Zr-24" value="&lt;span data-sider-select-id=&quot;a35e91d1-0b74-42c9-a46e-b5261c70f3c6&quot; style=&quot;font-size: 16px;&quot;&gt;ASSIGN_OP&lt;/span&gt;" style="rounded=0;whiteSpace=wrap;html=1;" vertex="1" parent="1">
          <mxGeometry x="-130" y="630" width="110" height="40" as="geometry" />
        </mxCell>
        <mxCell id="ULithzEe3QTlvXvxK5Zr-25" value="&lt;span data-sider-select-id=&quot;a35e91d1-0b74-42c9-a46e-b5261c70f3c6&quot; style=&quot;font-size: 16px;&quot;&gt;ASSIGN_OP&lt;/span&gt;" style="rounded=0;whiteSpace=wrap;html=1;" vertex="1" parent="1">
          <mxGeometry x="100" y="630" width="110" height="40" as="geometry" />
        </mxCell>
        <mxCell id="ULithzEe3QTlvXvxK5Zr-33" style="edgeStyle=orthogonalEdgeStyle;rounded=0;orthogonalLoop=1;jettySize=auto;html=1;" edge="1" parent="1" source="ULithzEe3QTlvXvxK5Zr-28" target="ULithzEe3QTlvXvxK5Zr-29">
          <mxGeometry relative="1" as="geometry" />
        </mxCell>
        <mxCell id="ULithzEe3QTlvXvxK5Zr-28" value="&lt;div data-sider-select-id=&quot;4fc4cdbc-a6b3-4794-94dd-3a829fdbd8da&quot; style=&quot;font-size: 16px;&quot;&gt;i&lt;/div&gt;" style="strokeWidth=1;html=1;shape=mxgraph.flowchart.terminator;whiteSpace=wrap;" vertex="1" parent="1">
          <mxGeometry x="-280" y="720" width="100" height="60" as="geometry" />
        </mxCell>
        <mxCell id="ULithzEe3QTlvXvxK5Zr-29" value="&lt;div data-sider-select-id=&quot;a2439201-f13c-405b-bcfa-a0fcadbd47ed&quot; style=&quot;font-size: 16px;&quot;&gt;10&lt;/div&gt;" style="strokeWidth=1;html=1;shape=mxgraph.flowchart.terminator;whiteSpace=wrap;" vertex="1" parent="1">
          <mxGeometry x="-140" y="720" width="100" height="60" as="geometry" />
        </mxCell>
        <mxCell id="ULithzEe3QTlvXvxK5Zr-36" style="edgeStyle=orthogonalEdgeStyle;rounded=0;orthogonalLoop=1;jettySize=auto;html=1;" edge="1" parent="1" source="ULithzEe3QTlvXvxK5Zr-30" target="ULithzEe3QTlvXvxK5Zr-31">
          <mxGeometry relative="1" as="geometry" />
        </mxCell>
        <mxCell id="ULithzEe3QTlvXvxK5Zr-30" value="&lt;div data-sider-select-id=&quot;d508b44a-3989-44f6-9c9b-930680eb44a8&quot; style=&quot;font-size: 16px;&quot;&gt;sum&lt;/div&gt;" style="strokeWidth=1;html=1;shape=mxgraph.flowchart.terminator;whiteSpace=wrap;" vertex="1" parent="1">
          <mxGeometry x="-10" y="720" width="100" height="60" as="geometry" />
        </mxCell>
        <mxCell id="ULithzEe3QTlvXvxK5Zr-31" value="&lt;div data-sider-select-id=&quot;d508b44a-3989-44f6-9c9b-930680eb44a8&quot; style=&quot;font-size: 16px;&quot;&gt;0&lt;/div&gt;" style="strokeWidth=1;html=1;shape=mxgraph.flowchart.terminator;whiteSpace=wrap;" vertex="1" parent="1">
          <mxGeometry x="120" y="720" width="100" height="60" as="geometry" />
        </mxCell>
        <mxCell id="ULithzEe3QTlvXvxK5Zr-32" value="" style="endArrow=classic;html=1;rounded=0;exitX=0;exitY=1;exitDx=0;exitDy=0;entryX=0.89;entryY=0.11;entryDx=0;entryDy=0;entryPerimeter=0;" edge="1" parent="1" target="ULithzEe3QTlvXvxK5Zr-28">
          <mxGeometry width="50" height="50" relative="1" as="geometry">
            <mxPoint x="-130" y="670" as="sourcePoint" />
            <mxPoint x="-195" y="720" as="targetPoint" />
          </mxGeometry>
        </mxCell>
        <mxCell id="ULithzEe3QTlvXvxK5Zr-34" value="" style="endArrow=classic;html=1;rounded=0;exitX=0;exitY=1;exitDx=0;exitDy=0;" edge="1" parent="1">
          <mxGeometry width="50" height="50" relative="1" as="geometry">
            <mxPoint x="100" y="670" as="sourcePoint" />
            <mxPoint x="50" y="720" as="targetPoint" />
          </mxGeometry>
        </mxCell>
        <mxCell id="ULithzEe3QTlvXvxK5Zr-37" style="edgeStyle=orthogonalEdgeStyle;rounded=0;orthogonalLoop=1;jettySize=auto;html=1;entryX=0.5;entryY=0;entryDx=0;entryDy=0;" edge="1" parent="1" source="ULithzEe3QTlvXvxK5Zr-38" target="ULithzEe3QTlvXvxK5Zr-39">
          <mxGeometry relative="1" as="geometry" />
        </mxCell>
        <mxCell id="ULithzEe3QTlvXvxK5Zr-38" value="&lt;font data-sider-select-id=&quot;dee6ed8b-5d42-46d7-af98-2b2d3d5c65ee&quot; style=&quot;font-size: 16px;&quot;&gt;WHILE_ST&lt;/font&gt;" style="rounded=0;whiteSpace=wrap;html=1;" vertex="1" parent="1">
          <mxGeometry x="45" y="839" width="90" height="40" as="geometry" />
        </mxCell>
        <mxCell id="ULithzEe3QTlvXvxK5Zr-47" style="edgeStyle=orthogonalEdgeStyle;rounded=0;orthogonalLoop=1;jettySize=auto;html=1;entryX=0;entryY=0.5;entryDx=0;entryDy=0;" edge="1" parent="1" source="ULithzEe3QTlvXvxK5Zr-39" target="ULithzEe3QTlvXvxK5Zr-46">
          <mxGeometry relative="1" as="geometry" />
        </mxCell>
        <mxCell id="ULithzEe3QTlvXvxK5Zr-39" value="&lt;font data-sider-select-id=&quot;dee6ed8b-5d42-46d7-af98-2b2d3d5c65ee&quot; style=&quot;font-size: 16px;&quot;&gt;GE&lt;/font&gt;" style="rounded=0;whiteSpace=wrap;html=1;" vertex="1" parent="1">
          <mxGeometry x="30" y="940" width="120" height="40" as="geometry" />
        </mxCell>
        <mxCell id="ULithzEe3QTlvXvxK5Zr-40" style="edgeStyle=orthogonalEdgeStyle;rounded=0;orthogonalLoop=1;jettySize=auto;html=1;entryX=0;entryY=0.5;entryDx=0;entryDy=0;" edge="1" parent="1">
          <mxGeometry relative="1" as="geometry">
            <mxPoint x="-35" y="1050" as="sourcePoint" />
            <mxPoint x="45" y="1050" as="targetPoint" />
          </mxGeometry>
        </mxCell>
        <mxCell id="ULithzEe3QTlvXvxK5Zr-41" value="" style="endArrow=classic;html=1;rounded=0;exitX=0;exitY=1;exitDx=0;exitDy=0;entryX=1;entryY=0;entryDx=0;entryDy=0;" edge="1" parent="1" source="ULithzEe3QTlvXvxK5Zr-39">
          <mxGeometry width="50" height="50" relative="1" as="geometry">
            <mxPoint x="15" y="950" as="sourcePoint" />
            <mxPoint x="-35" y="1030" as="targetPoint" />
          </mxGeometry>
        </mxCell>
        <mxCell id="ULithzEe3QTlvXvxK5Zr-42" value="&lt;div data-sider-select-id=&quot;e277dcc4-ad30-4acf-a720-a3dba6572099&quot; style=&quot;font-size: 16px;&quot;&gt;i&lt;/div&gt;" style="strokeWidth=1;html=1;shape=mxgraph.flowchart.terminator;whiteSpace=wrap;" vertex="1" parent="1">
          <mxGeometry x="-130" y="1020" width="100" height="60" as="geometry" />
        </mxCell>
        <mxCell id="ULithzEe3QTlvXvxK5Zr-43" value="&lt;div data-sider-select-id=&quot;168a1e54-052f-4b41-9dd3-f088c4b10ee2&quot; style=&quot;font-size: 16px;&quot;&gt;0&lt;/div&gt;" style="strokeWidth=1;html=1;shape=mxgraph.flowchart.terminator;whiteSpace=wrap;" vertex="1" parent="1">
          <mxGeometry x="50" y="1020" width="100" height="60" as="geometry" />
        </mxCell>
        <mxCell id="ULithzEe3QTlvXvxK5Zr-53" style="edgeStyle=orthogonalEdgeStyle;rounded=0;orthogonalLoop=1;jettySize=auto;html=1;" edge="1" parent="1" source="ULithzEe3QTlvXvxK5Zr-46" target="ULithzEe3QTlvXvxK5Zr-50">
          <mxGeometry relative="1" as="geometry" />
        </mxCell>
        <mxCell id="ULithzEe3QTlvXvxK5Zr-62" style="edgeStyle=orthogonalEdgeStyle;rounded=0;orthogonalLoop=1;jettySize=auto;html=1;entryX=0;entryY=0.5;entryDx=0;entryDy=0;" edge="1" parent="1" source="ULithzEe3QTlvXvxK5Zr-46" target="ULithzEe3QTlvXvxK5Zr-56">
          <mxGeometry relative="1" as="geometry" />
        </mxCell>
        <mxCell id="ULithzEe3QTlvXvxK5Zr-46" value="&lt;font data-sider-select-id=&quot;dee6ed8b-5d42-46d7-af98-2b2d3d5c65ee&quot; style=&quot;font-size: 16px;&quot;&gt;EXP_ST&lt;/font&gt;" style="rounded=0;whiteSpace=wrap;html=1;" vertex="1" parent="1">
          <mxGeometry x="240" y="940" width="90" height="40" as="geometry" />
        </mxCell>
        <mxCell id="ULithzEe3QTlvXvxK5Zr-48" value="&lt;div data-sider-select-id=&quot;e277dcc4-ad30-4acf-a720-a3dba6572099&quot; style=&quot;font-size: 16px;&quot;&gt;sum&lt;/div&gt;" style="strokeWidth=1;html=1;shape=mxgraph.flowchart.terminator;whiteSpace=wrap;" vertex="1" parent="1">
          <mxGeometry x="80" y="1120" width="100" height="60" as="geometry" />
        </mxCell>
        <mxCell id="ULithzEe3QTlvXvxK5Zr-49" value="&lt;div data-sider-select-id=&quot;e277dcc4-ad30-4acf-a720-a3dba6572099&quot; style=&quot;font-size: 16px;&quot;&gt;i&lt;/div&gt;" style="strokeWidth=1;html=1;shape=mxgraph.flowchart.terminator;whiteSpace=wrap;" vertex="1" parent="1">
          <mxGeometry x="225" y="1120" width="100" height="60" as="geometry" />
        </mxCell>
        <mxCell id="ULithzEe3QTlvXvxK5Zr-50" value="&lt;font data-sider-select-id=&quot;dee6ed8b-5d42-46d7-af98-2b2d3d5c65ee&quot; style=&quot;font-size: 16px;&quot;&gt;ASSIGN_ADD&lt;/font&gt;" style="rounded=0;whiteSpace=wrap;html=1;" vertex="1" parent="1">
          <mxGeometry x="225" y="1020" width="120" height="40" as="geometry" />
        </mxCell>
        <mxCell id="ULithzEe3QTlvXvxK5Zr-51" value="" style="endArrow=classic;html=1;rounded=0;exitX=0;exitY=1;exitDx=0;exitDy=0;entryX=0.817;entryY=0.031;entryDx=0;entryDy=0;entryPerimeter=0;" edge="1" parent="1" target="ULithzEe3QTlvXvxK5Zr-48">
          <mxGeometry width="50" height="50" relative="1" as="geometry">
            <mxPoint x="225" y="1060" as="sourcePoint" />
            <mxPoint x="160" y="1110" as="targetPoint" />
          </mxGeometry>
        </mxCell>
        <mxCell id="ULithzEe3QTlvXvxK5Zr-52" style="edgeStyle=orthogonalEdgeStyle;rounded=0;orthogonalLoop=1;jettySize=auto;html=1;entryX=0;entryY=0.5;entryDx=0;entryDy=0;entryPerimeter=0;" edge="1" parent="1" source="ULithzEe3QTlvXvxK5Zr-48" target="ULithzEe3QTlvXvxK5Zr-49">
          <mxGeometry relative="1" as="geometry" />
        </mxCell>
        <mxCell id="ULithzEe3QTlvXvxK5Zr-55" style="edgeStyle=orthogonalEdgeStyle;rounded=0;orthogonalLoop=1;jettySize=auto;html=1;" edge="1" parent="1" source="ULithzEe3QTlvXvxK5Zr-56" target="ULithzEe3QTlvXvxK5Zr-59">
          <mxGeometry relative="1" as="geometry" />
        </mxCell>
        <mxCell id="ULithzEe3QTlvXvxK5Zr-56" value="&lt;font data-sider-select-id=&quot;dee6ed8b-5d42-46d7-af98-2b2d3d5c65ee&quot; style=&quot;font-size: 16px;&quot;&gt;EXP_ST&lt;/font&gt;" style="rounded=0;whiteSpace=wrap;html=1;" vertex="1" parent="1">
          <mxGeometry x="460" y="940" width="90" height="40" as="geometry" />
        </mxCell>
        <mxCell id="ULithzEe3QTlvXvxK5Zr-57" value="&lt;div data-sider-select-id=&quot;e277dcc4-ad30-4acf-a720-a3dba6572099&quot; style=&quot;font-size: 16px;&quot;&gt;i&lt;/div&gt;" style="strokeWidth=1;html=1;shape=mxgraph.flowchart.terminator;whiteSpace=wrap;" vertex="1" parent="1">
          <mxGeometry x="345" y="1120" width="100" height="60" as="geometry" />
        </mxCell>
        <mxCell id="ULithzEe3QTlvXvxK5Zr-58" value="&lt;div data-sider-select-id=&quot;e277dcc4-ad30-4acf-a720-a3dba6572099&quot; style=&quot;font-size: 16px;&quot;&gt;1&lt;/div&gt;" style="strokeWidth=1;html=1;shape=mxgraph.flowchart.terminator;whiteSpace=wrap;" vertex="1" parent="1">
          <mxGeometry x="490" y="1120" width="100" height="60" as="geometry" />
        </mxCell>
        <mxCell id="ULithzEe3QTlvXvxK5Zr-59" value="&lt;font data-sider-select-id=&quot;dee6ed8b-5d42-46d7-af98-2b2d3d5c65ee&quot; style=&quot;font-size: 16px;&quot;&gt;ASSIGN_SUB&lt;/font&gt;" style="rounded=0;whiteSpace=wrap;html=1;" vertex="1" parent="1">
          <mxGeometry x="445" y="1020" width="120" height="40" as="geometry" />
        </mxCell>
        <mxCell id="ULithzEe3QTlvXvxK5Zr-60" value="" style="endArrow=classic;html=1;rounded=0;exitX=0;exitY=1;exitDx=0;exitDy=0;entryX=0.5;entryY=0;entryDx=0;entryDy=0;entryPerimeter=0;" edge="1" parent="1" target="ULithzEe3QTlvXvxK5Zr-57" source="ULithzEe3QTlvXvxK5Zr-59">
          <mxGeometry width="50" height="50" relative="1" as="geometry">
            <mxPoint x="490" y="1060" as="sourcePoint" />
            <mxPoint x="425" y="1110" as="targetPoint" />
          </mxGeometry>
        </mxCell>
        <mxCell id="ULithzEe3QTlvXvxK5Zr-61" style="edgeStyle=orthogonalEdgeStyle;rounded=0;orthogonalLoop=1;jettySize=auto;html=1;entryX=0;entryY=0.5;entryDx=0;entryDy=0;entryPerimeter=0;" edge="1" parent="1" source="ULithzEe3QTlvXvxK5Zr-57" target="ULithzEe3QTlvXvxK5Zr-58">
          <mxGeometry relative="1" as="geometry" />
        </mxCell>
      </root>
    </mxGraphModel>
  </diagram>
</mxfile>
